<svg width="183" height="196" viewBox="0 0 183 196" fill="none" xmlns="http://www.w3.org/2000/svg">
<style>
path {
    fill: #000;
}

@media (prefers-color-scheme: dark) {
    path{
        fill:#fff;
    }
}

</style>
<path d="M8.99991 195.8C6.06657 195.933 3.79991 195.4 2.19991 194.2C0.466572 193 -0.133428 190.733 0.399905 187.4C0.399905 187 0.533238 186.4 0.799905 185.6C1.06657 184.8 1.39991 184.267 1.79991 184C1.66657 187.333 2.06657 189.667 2.99991 191C3.93324 192.333 5.46657 193 7.59991 193C12.7999 193 18.1332 191.333 23.5999 188C29.1999 184.667 34.7332 180.2 40.1999 174.6C38.8666 174.2 37.1332 173.4 34.9999 172.2C32.9999 171.133 31.4666 170.267 30.3999 169.6C25.0666 165.733 22.3999 161.267 22.3999 156.2C22.3999 152.333 24.1332 148.133 27.5999 143.6C31.0666 139.067 36.7332 134.467 44.5999 129.8C49.6666 126.733 55.5332 124 62.1999 121.6C68.8666 119.2 75.0666 117.267 80.7999 115.8C82.7999 111.933 84.7332 108.133 86.5999 104.4C88.4666 100.667 90.2666 96.9333 91.9999 93.2C92.6666 91.7333 93.8666 88.9333 95.5999 84.8C97.3332 80.6667 99.2666 75.8 101.4 70.2C103.533 64.6 105.533 58.6667 107.4 52.4C109.4 46 111.067 39.8 112.4 33.8C113.733 27.8 114.4 22.4667 114.4 17.8C114.4 13.2667 113.6 9.73333 112 7.2C110.533 4.66667 107.867 3.4 104 3.4H103.8C102.733 3.4 102.2 3.06667 102.2 2.4C102.2 1.73333 102.867 1.26667 104.2 0.999995C110.6 0.333329 115.067 1.86666 117.6 5.6C120.133 9.33334 121.4 14.2667 121.4 20.4C121.4 21.4667 121.333 22.6 121.2 23.8C121.2 25 121.133 26.2667 121 27.6C121.8 28.2667 122.333 29.4 122.6 31C123.4 35.2667 124.2 40.8667 125 47.8C125.933 54.7333 127 62.3333 128.2 70.6C129.4 78.8667 130.8 87.2667 132.4 95.8C134.133 104.2 136.133 112.133 138.4 119.6C140.8 126.933 143.6 133.133 146.8 138.2C147.467 139.267 148.4 140.667 149.6 142.4C150.8 144 152.267 145.467 154 146.8C155.733 148.133 157.667 148.8 159.8 148.8C162.067 148.8 164.4 147.867 166.8 146C168.933 144.267 170.933 141.867 172.8 138.8C174.667 135.733 176.4 132.467 178 129C178.8 127.533 179.533 126.8 180.2 126.8C180.867 126.8 181.333 127.2 181.6 128C182 128.667 182.133 129.333 182 130C181.467 131.733 180.333 133.8 178.6 136.2C177 138.467 175.333 140.6 173.6 142.6C171.867 144.467 170.467 145.8 169.4 146.6C167 148.467 164.667 149.8 162.4 150.6C160.267 151.533 158.267 152 156.4 152C152 152 148.133 150.333 144.8 147C141.6 143.533 138.8 139.933 136.4 136.2C133.067 130.867 130.4 124.133 128.4 116C126.533 107.867 125.067 99.0667 124 89.6C122.933 80.1333 122.067 70.8 121.4 61.6C120.867 52.4 120.267 44 119.6 36.4C118 43.8667 115.8 51.5333 113 59.4C110.2 67.2667 107.333 74.5333 104.4 81.2C101.6 87.7333 99.2666 92.8 97.3999 96.4C94.4666 102.4 91.2666 108.4 87.7999 114.4C93.9332 112.933 100.333 111.6 107 110.4C113.667 109.2 119.533 108.067 124.6 107H125.2C125.733 107 126 107.2 126 107.6C126 108 125.667 108.533 125 109.2C124.333 109.867 123.467 110.333 122.4 110.6C116.667 111.667 110.467 112.933 103.8 114.4C97.1332 115.733 90.8666 117.2 84.9999 118.8C78.8666 129.333 72.6666 139.333 66.3999 148.8C60.1332 158.267 53.2666 166.667 45.7999 174C50.8666 175.6 57.3332 176.4 65.1999 176.4H65.5999C66.6666 176.4 67.1999 176.667 67.1999 177.2C67.1999 178 66.3999 178.4 64.7999 178.4C61.0666 178.533 57.3999 178.333 53.7999 177.8C50.1999 177.4 46.8666 176.733 43.7999 175.8C37.9332 181.533 31.9999 186.133 25.9999 189.6C20.1332 193.2 14.4666 195.267 8.99991 195.8ZM42.1999 172.6C48.5999 165.933 54.7999 158.133 60.7999 149.2C66.9332 140.267 72.6666 130.933 77.9999 121.2C76.2666 121.733 74.4666 122.333 72.5999 123C70.7332 123.667 68.9332 124.467 67.1999 125.4C64.9332 126.467 61.8666 128 57.9999 130C54.1332 132 50.2666 134.133 46.3999 136.4C42.6666 138.533 39.7999 140.467 37.7999 142.2C35.1332 144.6 33.1999 146.933 31.9999 149.2C30.7999 151.467 30.1999 153.667 30.1999 155.8C30.1999 157.667 30.5332 159.467 31.1999 161.2C31.9999 162.933 32.9332 164.6 33.9999 166.2C34.6666 167 35.8666 168.067 37.5999 169.4C39.4666 170.867 40.9999 171.933 42.1999 172.6Z"/>
</svg>
